<?xml version="1.0" standalone="no"?>
<!DOCTYPE svg PUBLIC "-//W3C//DTD SVG 20010904//EN"
 "http://www.w3.org/TR/2001/REC-SVG-20010904/DTD/svg10.dtd">
<svg version="1.0" xmlns="http://www.w3.org/2000/svg"
 width="70.000000pt" height="70.000000pt" viewBox="0 0 70.000000 70.000000"
 preserveAspectRatio="xMidYMid meet">
<metadata>
Created by potrace 1.14, written by Peter Selinger 2001-2017
</metadata>
<g transform="translate(0.000000,70.000000) scale(0.100000,-0.100000)"
fill="#000000" stroke="none">
<path d="M107 543 c-3 -4 -8 -29 -12 -55 l-7 -48 61 0 c33 0 61 -3 61 -6 0 -4
-38 -80 -85 -169 -46 -89 -82 -165 -78 -169 3 -3 33 -6 65 -6 l58 0 99 199
c55 109 101 211 103 227 l3 29 -132 3 c-72 1 -134 -1 -136 -5z"/>
<path d="M412 538 c-6 -7 -12 -31 -14 -53 l-3 -40 62 -3 63 -3 -85 -163 c-47
-90 -85 -169 -85 -175 0 -8 19 -11 62 -9 l62 3 97 190 c57 109 100 205 101
225 l3 35 -126 3 c-94 2 -129 -1 -137 -10z"/>
</g>
</svg>
